<?xml version="1.0" encoding="UTF-8" standalone="no"?>
<!-- Generator: Adobe Illustrator 26.4.1, SVG Export Plug-In . SVG Version: 6.00 Build 0)  -->

<svg
   version="1.1"
   id="Layer_1"
   x="0px"
   y="0px"
   viewBox="0 0 155.30902 153.08692"
   xml:space="preserve"
   sodipodi:docname="vite.svg"
   inkscape:version="1.1.2 (0a00cf5339, 2022-02-04)"
   width="155.30902"
   height="153.08691"
   xmlns:inkscape="http://www.inkscape.org/namespaces/inkscape"
   xmlns:sodipodi="http://sodipodi.sourceforge.net/DTD/sodipodi-0.dtd"
   xmlns="http://www.w3.org/2000/svg"
   xmlns:svg="http://www.w3.org/2000/svg"><defs
   id="defs127" /><sodipodi:namedview
   id="namedview125"
   pagecolor="#ffffff"
   bordercolor="#666666"
   borderopacity="1.0"
   inkscape:pageshadow="2"
   inkscape:pageopacity="0.0"
   inkscape:pagecheckerboard="0"
   showgrid="false"
   inkscape:zoom="3.0684066"
   inkscape:cx="40.737757"
   inkscape:cy="94.022743"
   inkscape:window-width="1866"
   inkscape:window-height="1016"
   inkscape:window-x="0"
   inkscape:window-y="0"
   inkscape:window-maximized="1"
   inkscape:current-layer="Layer_1" />
<style
   type="text/css"
   id="style2">
	.st0{fill:#FFEFC0;}
	.st1{fill:#FBD873;}
	.st2{fill:#CE3045;}
	.st3{fill:#8B0037;}
	.st4{fill:#F48473;}
	.st5{fill:#782A33;}
	.st6{fill:#B3D46A;}
	.st7{fill:#3D111F;}
	.st8{fill:#D55B55;}
	.st9{fill:#8FB43F;}
</style>

<g
   id="g10"
   transform="translate(-43.490983,-37.313082)">
	
	<path
   class="st1"
   d="m 68,181 v 0 l 0.2,0.2 C 68.1,181.1 68.1,181.1 68,181 Z"
   id="path8" />
</g>
<g
   id="g20"
   transform="translate(-43.490983,-37.313082)">
	<path
   class="st2"
   d="m 89.9,97.2 c 0,0 0,0 0,0 -3.2,-2.7 -7,-4.9 -11.1,-6.6 -9.2,3.4 -15.8,12.3 -16,22.6 9.3,-2.6 17.7,-7.4 25,-14.3 0.2,-0.2 1,-0.9 2.1,-1.7 z"
   id="path12" />
	<path
   class="st2"
   d="m 102.4,89 c -0.9,0.5 -2,1 -3,1.7 1.1,-0.7 2.1,-1.2 3,-1.7 z"
   id="path14" />
	<path
   class="st2"
   d="m 160.8,124.9 c -10.2,-1.1 -18.3,-6.4 -25.3,-13.6 -1.2,-1.3 -1.9,-1.8 -3.3,0 -9.6,13.1 -34.4,35.9 -69.5,17.8 v 36.7 c 0,13.6 11,24.6 24.6,24.6 h 79.4 c 13.6,0 24.6,-11 24.6,-24.6 v -49.3 c -10.2,7.5 -22.6,9.3 -30.5,8.4 z"
   id="path16" />
	<path
   class="st2"
   d="m 182.4,94.6 c -4.4,4.7 -8.8,7.2 -10.3,8 4.7,2.9 12.8,5 18.9,6.2 -1.2,-5.7 -4.3,-10.7 -8.6,-14.2 z"
   id="path18" />
</g>
<path
   class="st3"
   d="m 109.80902,86.986918 h -8.8 c -1.300003,0 -2.300003,1 -2.300003,2.3 v 8.8 c 0,1.3 1,2.300002 2.300003,2.300002 h 8.8 c 1.3,0 2.3,-1.000002 2.3,-2.300002 v -8.8 c 0,-1.3 -1,-2.3 -2.3,-2.3 z"
   id="path22" />
<path
   class="st3"
   d="m 49.309017,105.68692 h -8.8 c -1.3,0 -2.3,1 -2.3,2.3 v 8.8 c 0,1.3 1,2.3 2.3,2.3 h 8.8 c 1.3,0 2.3,-1 2.3,-2.3 v -8.8 c 0,-1.3 -1,-2.3 -2.3,-2.3 z"
   id="path24" />
<path
   class="st3"
   d="m 69.409017,105.68692 h -8.8 c -1.3,0 -2.3,1 -2.3,2.3 v 8.8 c 0,1.3 1,2.3 2.3,2.3 h 8.8 c 1.3,0 2.3,-1 2.3,-2.3 v -8.8 c 0.1,-1.3 -1,-2.3 -2.3,-2.3 z"
   id="path26" />
<path
   class="st3"
   d="m 89.609017,105.68692 h -8.8 c -1.3,0 -2.3,1 -2.3,2.3 v 8.8 c 0,1.3 1,2.3 2.3,2.3 h 8.8 c 1.3,0 2.3,-1 2.3,-2.3 v -8.8 c 0,-1.3 -1,-2.3 -2.3,-2.3 z"
   id="path28" />
<path
   class="st3"
   d="m 89.609017,86.986918 h -8.8 c -1.3,0 -2.3,1 -2.3,2.3 v 8.8 c 0,1.3 1,2.300002 2.3,2.300002 h 8.8 c 1.3,0 2.3,-1.000002 2.3,-2.300002 v -8.8 c 0,-1.3 -1,-2.3 -2.3,-2.3 z"
   id="path30" />
<path
   class="st3"
   d="m 109.80902,105.68692 h -8.8 c -1.300003,0 -2.300003,1 -2.300003,2.3 v 8.8 c 0,1.3 1,2.3 2.300003,2.3 h 8.8 c 1.3,0 2.3,-1 2.3,-2.3 v -8.8 c 0,-1.3 -1,-2.3 -2.3,-2.3 z"
   id="path32" />
<path
   class="st3"
   d="m 49.309017,124.38692 h -8.8 c -1.3,0 -2.3,1 -2.3,2.3 v 8.8 c 0,1.3 1,2.3 2.3,2.3 h 8.8 c 1.3,0 2.3,-1 2.3,-2.3 v -8.8 c 0,-1.3 -1,-2.3 -2.3,-2.3 z"
   id="path34" />
<path
   class="st3"
   d="m 69.409017,124.38692 h -8.8 c -1.3,0 -2.3,1 -2.3,2.3 v 8.8 c 0,1.3 1,2.3 2.3,2.3 h 8.8 c 1.3,0 2.3,-1 2.3,-2.3 v -8.8 c 0.1,-1.3 -1,-2.3 -2.3,-2.3 z"
   id="path36" />
<path
   class="st3"
   d="m 89.609017,124.38692 h -8.8 c -1.3,0 -2.3,1 -2.3,2.3 v 8.8 c 0,1.3 1,2.3 2.3,2.3 h 8.8 c 1.3,0 2.3,-1 2.3,-2.3 v -8.8 c 0,-1.3 -1,-2.3 -2.3,-2.3 z"
   id="path38" />
<path
   class="st3"
   d="m 109.80902,124.38692 h -8.8 c -1.300003,0 -2.300003,1 -2.300003,2.3 v 8.8 c 0,1.3 1,2.3 2.300003,2.3 h 8.8 c 1.3,0 2.3,-1 2.3,-2.3 v -8.8 c 0,-1.3 -1,-2.3 -2.3,-2.3 z"
   id="path40" />
<path
   class="st3"
   d="m 129.90902,105.68692 h -8.8 c -1.3,0 -2.3,1 -2.3,2.3 v 8.8 c 0,1.3 1,2.3 2.3,2.3 h 8.8 c 1.3,0 2.3,-1 2.3,-2.3 v -8.8 c 0.1,-1.3 -1,-2.3 -2.3,-2.3 z"
   id="path42" />
<path
   class="st4"
   d="m 108.80902,85.986918 h -8.8 c -1.300003,0 -2.300003,1 -2.300003,2.3 v 8.8 c 0,1.3 1,2.3 2.300003,2.3 h 8.8 c 1.3,0 2.3,-1 2.3,-2.3 v -8.8 c 0,-1.3 -1,-2.3 -2.3,-2.3 z"
   id="path44" />
<path
   class="st4"
   d="m 48.309017,104.68692 h -8.8 c -1.3,0 -2.3,1 -2.3,2.3 v 8.8 c 0,1.3 1,2.3 2.3,2.3 h 8.8 c 1.3,0 2.3,-1 2.3,-2.3 v -8.8 c 0,-1.3 -1,-2.3 -2.3,-2.3 z"
   id="path46" />
<path
   class="st4"
   d="m 68.409017,104.68692 h -8.8 c -1.3,0 -2.3,1 -2.3,2.3 v 8.8 c 0,1.3 1,2.3 2.3,2.3 h 8.8 c 1.3,0 2.3,-1 2.3,-2.3 v -8.8 c 0.1,-1.3 -1,-2.3 -2.3,-2.3 z"
   id="path48" />
<path
   class="st4"
   d="m 88.609017,104.68692 h -8.8 c -1.3,0 -2.3,1 -2.3,2.3 v 8.8 c 0,1.3 1,2.3 2.3,2.3 h 8.8 c 1.3,0 2.3,-1 2.3,-2.3 v -8.8 c 0,-1.3 -1,-2.3 -2.3,-2.3 z"
   id="path50" />
<path
   class="st4"
   d="m 88.609017,85.986918 h -8.8 c -1.3,0 -2.3,1 -2.3,2.3 v 8.8 c 0,1.3 1,2.3 2.3,2.3 h 8.8 c 1.3,0 2.3,-1 2.3,-2.3 v -8.8 c 0,-1.3 -1,-2.3 -2.3,-2.3 z"
   id="path52" />
<path
   class="st4"
   d="m 108.80902,104.68692 h -8.8 c -1.300003,0 -2.300003,1 -2.300003,2.3 v 8.8 c 0,1.3 1,2.3 2.300003,2.3 h 8.8 c 1.3,0 2.3,-1 2.3,-2.3 v -8.8 c 0,-1.3 -1,-2.3 -2.3,-2.3 z"
   id="path54" />
<path
   class="st4"
   d="m 48.309017,123.38692 h -8.8 c -1.3,0 -2.3,1 -2.3,2.3 v 8.8 c 0,1.3 1,2.3 2.3,2.3 h 8.8 c 1.3,0 2.3,-1 2.3,-2.3 v -8.8 c 0,-1.3 -1,-2.3 -2.3,-2.3 z"
   id="path56" />
<path
   class="st4"
   d="m 68.409017,123.38692 h -8.8 c -1.3,0 -2.3,1 -2.3,2.3 v 8.8 c 0,1.3 1,2.3 2.3,2.3 h 8.8 c 1.3,0 2.3,-1 2.3,-2.3 v -8.8 c 0.1,-1.3 -1,-2.3 -2.3,-2.3 z"
   id="path58" />
<path
   class="st4"
   d="m 88.609017,123.38692 h -8.8 c -1.3,0 -2.3,1 -2.3,2.3 v 8.8 c 0,1.3 1,2.3 2.3,2.3 h 8.8 c 1.3,0 2.3,-1 2.3,-2.3 v -8.8 c 0,-1.3 -1,-2.3 -2.3,-2.3 z"
   id="path60" />
<path
   class="st4"
   d="m 108.80902,123.38692 h -8.8 c -1.300003,0 -2.300003,1 -2.300003,2.3 v 8.8 c 0,1.3 1,2.3 2.300003,2.3 h 8.8 c 1.3,0 2.3,-1 2.3,-2.3 v -8.8 c 0,-1.3 -1,-2.3 -2.3,-2.3 z"
   id="path62" />
<path
   class="st5"
   d="m 128.90902,104.68692 h -8.8 c -1.3,0 -2.3,1 -2.3,2.3 v 8.8 c 0,1.3 1,2.3 2.3,2.3 h 8.8 c 1.3,0 2.3,-1 2.3,-2.3 v -8.8 c 0.1,-1.3 -1,-2.3 -2.3,-2.3 z"
   id="path64" />
<path
   class="st6"
   d="m 0.30901699,78.586918 c -0.1,0 -0.1,-0.1 -0.2,-0.1 -0.2,-0.2 -0.1,-0.4 0.1,-0.4 2.60000001,-0.1 5.20000001,0 7.80000001,-0.2 14,-1.2 26.1,-6.7 36.3,-16.3 0.8,-0.8 11.1,-8.6 16.1,-10.5 9.2,-3.5 18,-2.7 26,3.3 1.1,0.9 1.4,1.4 0.1,2.7 -10.4,10.1 -22.1,18 -35.9,22.4 -10.7,3.4 -21.6,4.6 -32.9,3 -5.9,-0.8 -11.7,-2.2 -17.40000001,-3.9 z"
   id="path66" />
<path
   class="st6"
   d="m 155.00902,72.686918 c 0,0 -4.5,1.3 -6.8,1.9 -9.3,2.4 -18.7,1.9 -27.9,-0.2 -6.2,-1.4 -12,-4 -17.4,-7.4 -4.500003,-2.9 -8.800003,-6.2 -12.700003,-9.8 -1.3,-1.2 -1.1,-1.9 0.1,-2.8 3.9,-2.6 7.9,-4.3 12.700003,-3.8 7.7,0.7 13.6,4.9 19.1,9.8 2,1.8 4,3.6 6.4,4.9 7.7,4.6 23.9,7.2 26.5,7.4 z"
   id="path68" />
<path
   class="st1"
   d="m 114.40902,9.4869177 c -7.3,11.5000003 -12.7,23.8000003 -16.500003,36.8000003 -0.2,0.7 -0.4,1.4 -0.6,2.5 0.6,-0.4 1.1,-0.9 1.5,-1.3 0,-0.1 0,-0.2 0.1,-0.2 3.800003,-13 9.200003,-25.4 16.500003,-36.8 0.8,-1.3000003 0.6,-1.9000003 -0.5,-2.5000003 0,0.4 -0.1,0.9 -0.5,1.5 z"
   id="path70" />
<path
   class="st3"
   d="m 84.009017,47.286918 c -0.2,-0.3 -0.4,-0.5 -0.6,-0.7 -0.2,-0.2 -0.4,-0.4 -0.6,-0.6 0.3,0.5 0.7,1 1.2,1.3 z"
   id="path72" />
<path
   class="st5"
   d="m 118.00902,87.686918 c -0.1,0.2 -0.1,0.4 -0.1,0.6 v 8.8 c 0,1.3 1,2.3 2.3,2.3 h 8.8 c 1.3,0 2.3,-1 2.3,-2.3 v -8.8 c 0,-0.6 -0.2,-1.2 -0.6,-1.6 -4.1,1 -8.3,1.4 -12.7,1 z"
   id="path74" />
<path
   class="st7"
   d="m 131.20902,87.786918 c -0.1,-0.4 -0.3,-0.8 -0.6,-1.1 -4.1,1 -8.3,1.4 -12.7,1 -0.1,0.2 -0.1,0.4 -0.1,0.6 v 0.3 c 0.2,0 0.3,0 0.5,0.1 4.5,0.4 8.8,0.1 12.9,-0.9 z"
   id="path76" />
<path
   class="st8"
   d="m 108.80902,85.986918 h -0.5 c 0.7,0.3 1.5,0.6 2.3,0.9 -0.4,-0.6 -1.1,-0.9 -1.8,-0.9 z"
   id="path78" />
<g
   id="g82"
   transform="translate(-43.490983,-37.313082)">
	<path
   class="st1"
   d="M 62.8,129.7 V 129 c -5.6,-2.8 -12,-7.2 -18.3,-12.5 0,0.1 5.9,6.9 18.3,13.2 z"
   id="path80" />
</g>
<g
   id="g90"
   transform="translate(-43.490983,-37.313082)">
	<path
   class="st3"
   d="m 135.6,111.3 c -1.2,-1.3 -1.9,-1.8 -3.3,0 -5,6.4 -10.8,11.9 -17.4,16.2 -1.7,1.1 -3.4,2.1 -5.2,3 1.6,-0.8 3.1,-1.7 4.6,-2.6 v 6.4 c 0,1.3 -1,2.3 -2.3,2.3 h -8.8 c -0.4,0 -0.7,-0.1 -1.1,-0.3 0.4,0.7 1.2,1.3 2.1,1.3 h 8.8 c 1.3,0 2.3,-1 2.3,-2.3 v -6.4 c 6.9,-4.3 12.9,-10 18,-16.6 1.2,-1.5 1.8,-1.4 2.8,-0.5 -0.2,-0.2 -0.4,-0.3 -0.5,-0.5 z"
   id="path84" />
	<path
   class="st3"
   d="m 109.4,130.6 c -0.8,0.4 -1.6,0.8 -2.5,1.2 0.9,-0.4 1.7,-0.8 2.5,-1.2 z"
   id="path86" />
	<path
   class="st3"
   d="m 106.6,132 c -1,0.4 -1.9,0.8 -2.9,1.2 0.9,-0.4 1.9,-0.8 2.9,-1.2 z"
   id="path88" />
</g>
<path
   class="st8"
   d="m 79.309017,85.986918 c -0.7,0.2 -1.4,0.7 -1.7,1.4 0.6,-0.4 1.4,-1.1 1.7,-1.4 z"
   id="path92" />
<path
   class="st4"
   d="m 57.309017,96.786918 v 0.2 c 0,1.3 1,2.3 2.3,2.3 h 8.8 c 1.3,0 2.3,-1 2.3,-2.3 v -6.2 c -3.9,2.5 -8.4,4.6 -13.4,6 z"
   id="path94" />
<path
   class="st9"
   d="m 0.30901699,78.586918 c 0,0 11.50000001,3.1 17.40000001,3.9 11.2,1.6 22.2,0.4 32.9,-3 13.9,-4.4 25.6,-12.3 35.9,-22.4 1.3,-1.2 1,-1.8 -0.1,-2.7 -8,-6 -16.8,-6.9 -26,-3.3 -5,1.9 -13.7,8.8 -13.9,8.8 -8.5,-7.1 -20.5,-10.7 -32,-10.2 -0.6,0 -1.2,0.1 -1.8,0.2 -1.5,0.1 -1,-0.5 -0.4,-1.2 3.7,-3.6 7.7,-6.9 12.1,-9.6 9.5,-5.9 19.7,-9.2 31.1,-7.7 10.7,1.4 19.2,6.9 26.9,14.1 0.8,0.7 1.4,2.3 2.6,1.8 1.1,-0.4 0.7,-2 0.8,-3 1.6,-14.7 5.3,-28.9 11.2,-42.5000003 0.8,-1.9 1.6,-2.2 3.400003,-1.3 4.5,2 8.9,4.1 13.3,6.4 1.3,0.7 1.7,1.2 0.8,2.6 -7.3,11.5000003 -12.7,23.8000003 -16.500003,36.8000003 -0.2,0.7 -0.4,1.4 -0.6,2.5 1.5,-1.2 2.600003,-2.2 3.900003,-3.1 5.1,-3.3 11,-4.1 16.8,-3.5 11.7,1.1 22,-1.7 31.5,-9.6 -1.9,22.2 -17.7,30.8 -20.8,32.6 -2.4,-1.3 -4.4,-3.1 -6.4,-4.9 -5.6,-4.8 -11.4,-9.1 -19.1,-9.8 -4.800003,-0.4 -8.900003,1.3 -12.700003,3.8 -1.2,0.8 -1.4,1.6 -0.1,2.8 4,3.6 8.2,6.9 12.700003,9.8 5.4,3.4 11.2,6 17.4,7.4 9.2,2 18.5,2.6 27.9,0.2 2.3,-0.6 6.8,-1.9 6.8,-1.9 -11.1,13 -27.9,16 -37.7,14.9 -10.2,-1.1 -18.300003,-6.4 -25.300003,-13.6 -1.2,-1.3 -1.9,-1.8 -3.3,0 -11.5,15.4 -43.5,44.200002 -88.70000001,4.7 z"
   id="path96" />
<path
   class="st8"
   d="m 57.309017,96.786918 v 0.2 c 0,0.3 0.2,0.8 0.2,0.8 0,0 2.4,-0.6 3.6,-1 3.4,-1.3 6.6,-2.8 9.6,-4.6 v -1.4 c -3.9,2.5 -8.4,4.6 -13.4,6 z"
   id="path98" />
<path
   class="st3"
   d="m 57.309017,96.786918 c -9.6,2.7 -20.9,2.6 -33.6,-2.9 -1.5,-0.6 -4.5,-2.1 -4.5,-2.1 v 0.7 c 4.4,2.2 9.1,4.1 14.1,5.4 5.6,1.5 14.5,2.300002 24.1,0.1 -0.1,-0.3 -0.2,-0.5 -0.2,-0.8 v -0.4 z"
   id="path100" />
<path
   class="st3"
   d="m 92.109017,73.986918 c -0.3,-0.3 -0.6,-0.6 -0.8,-0.8 -0.8,-0.6 -1.4,-0.5 -2.4,0.8 -3.8,5.1 -9.9,11.8 -18,16.8 v 6.2 c 0,1.3 -1,2.3 -2.3,2.3 h -8.8 c -0.4,0 -0.7,-0.1 -1.1,-0.3 0.4,0.7 1.2,1.300002 2.1,1.300002 h 8.8 c 1.3,0 2.3,-1.000002 2.3,-2.300002 v -6.4 c 6.9,-4.3 12.9,-10 18,-16.6 1.2,-1.5 1.8,-1.4 2.8,-0.5 -0.3,-0.2 -0.5,-0.3 -0.6,-0.5 z"
   id="path102" />
<polygon
   class="st3"
   points=""
   id="polygon104"
   transform="translate(-43.490983,-37.313082)" />
<path
   class="st3"
   d="m 126.50902,87.486918 c -2.6,0.3 -5,0.4 -7.1,0.3 2.4,0.1 4.8,0 7.1,-0.3 z"
   id="path106" />
<path
   class="st3"
   d="m 117.90902,88.286918 c 0,-0.2 0,-0.4 0.1,-0.6 0.1,0 0.1,0 0.2,0 -0.3,0 -0.5,0 -0.8,-0.1 -0.8,-0.1 -1.6,-0.2 -2.4,-0.4 0,0 0,0 0,0 -0.4,-0.1 -0.8,-0.1 -1.2,-0.2 0,0 0,0 0,0 -0.3,-0.1 -0.6,-0.1 -0.9,-0.2 -0.3,-0.1 -0.6,-0.1 -0.8,-0.2 0,0 0,0 0,0 -0.8,-0.2 -1.7,-0.5 -2.5,-0.8 0,0 0,0 0,0 -0.1,-0.1 -0.3,-0.1 -0.4,-0.2 -0.5,-0.2 -1,-0.4 -1.5,-0.6 -0.2,-0.1 -0.4,-0.1 -0.5,-0.2 0,0 0,0 0,0 -0.5,-0.2 -0.9,-0.4 -1.4,-0.6 -0.1,0 -0.1,-0.1 -0.2,-0.1 0,0 0,0 0,0 -0.5,-0.2 -1,-0.5 -1.4,-0.7 0,0 -0.1,0 -0.1,0 0,0 0,0 0,0 -0.3,-0.2 -0.6,-0.3 -0.9,-0.5 -0.2,-0.1 -0.4,-0.2 -0.6,-0.4 0,0 0,0 0,0 -0.3,-0.2 -0.5,-0.3 -0.8,-0.5 0,0 0,0 0,0 -0.2,-0.1 -0.4,-0.2 -0.5,-0.4 -0.4,-0.3 -0.8,-0.6 -1.3,-0.9 -0.100003,-0.1 -0.200003,-0.1 -0.300003,-0.2 0,0 0,0 0,0 -0.4,-0.3 -0.8,-0.6 -1.2,-0.9 0,0 -0.1,-0.1 -0.1,-0.1 0,0 0,0 0,0 -0.3,-0.2 -0.6,-0.4 -0.9,-0.7 0,0 0,0 0,0 -0.1,0 -0.1,-0.1 -0.2,-0.1 -0.6,-0.5 -1.3,-1.1 -1.9,-1.6 -0.1,0 -0.1,-0.1 -0.2,-0.1 -0.6,-0.5 -1.1,-1 -1.7,-1.6 6.800003,6.9 14.600003,11.9 24.400003,13.1 z"
   id="path108" />
<path
   class="st3"
   d="m 148.00902,79.186918 c -5.5,4 -11.6,6.4 -17.2,7.6 0.3,0.4 0.6,0.9 0.6,1.5 v 8.8 c 0,1.3 -1,2.3 -2.3,2.3 h -8.8 c -0.4,0 -0.7,-0.1 -1.1,-0.3 0.4,0.7 1.2,1.300002 2.1,1.300002 h 8.8 c 1.3,0 2.3,-1.000002 2.3,-2.300002 v -8.8 c 0,-0.6 -0.2,-1.1 -0.6,-1.6 5.5,-1.2 11.3,-3.6 16.3,-7.4 v -1.1 z"
   id="path110" />
<path
   class="st3"
   d="m 37.909017,54.386918 c -0.9,-0.4 -1.7,-0.8 -2.6,-1.1 -0.3,0.1 -0.6,0.2 -0.8,0.3 0.9,0.3 1.8,0.7 2.7,1.1 3.1,1.4 6.3,3.1 9.2,5.2 -1.1,-1.2 -5,-4 -8.5,-5.5 z"
   id="path112" />
<path
   class="st3"
   d="m 138.90902,57.286918 c -0.4,0.5 -0.8,0.9 -1.3,1.3 -4.7,4.7 -9,6.6 -9,6.7 0.4,0.3 0.9,0.5 1.3,0.8 1.3,-0.8 5,-2.7 8.9,-6.5 0.4,-0.4 0.8,-0.8 1.2,-1.3 -0.3,-0.3 -0.7,-0.7 -1.1,-1 z"
   id="path114" />
<path
   class="st1"
   d="m 35.309017,53.286918 c -6.5,-2.7 -13.4,-3.9 -20.8,-3.6 -0.4,0 -0.8,0.1 -1.2,0.1 -0.6,0.6 -0.9,1.1 0.5,1.1 0.6,-0.1 1.2,-0.1 1.8,-0.2 6.7,-0.3 13.1,0.7 19,2.9 0.2,-0.1 0.4,-0.2 0.7,-0.3 z"
   id="path116" />
<path
   class="st1"
   d="m 140.10902,58.286918 c 4.6,-5 9.2,-12.7 10.3,-24.6 -0.4,0.3 -0.8,0.6 -1.2,1 -1.4,10.4 -5.9,17.7 -10.3,22.6 0.4,0.3 0.8,0.7 1.2,1 z"
   id="path118" />
<path
   class="st6"
   d="m 0.30901699,78.586918 c -0.1,0 -0.1,-0.1 -0.2,-0.1 -0.2,-0.2 -0.1,-0.4 0.1,-0.4 2.60000001,-0.1 5.20000001,0 7.80000001,-0.2 14,-1.2 26.1,-6.7 36.3,-16.3 0.8,-0.8 11.1,-8.6 16.1,-10.5 9.2,-3.5 18,-2.7 26,3.3 1.1,0.9 1.4,1.4 0.1,2.7 -10.4,10.1 -22.1,18 -35.9,22.4 -10.7,3.4 -21.6,4.6 -32.9,3 -5.9,-0.8 -11.7,-2.2 -17.40000001,-3.9 z"
   id="path120" />
<path
   class="st9"
   d="m 0.30901699,78.586918 c 0,0 11.50000001,3.1 17.40000001,3.9 11.2,1.6 22.2,0.4 32.9,-3 13.9,-4.4 25.6,-12.3 35.9,-22.4 1.3,-1.2 1,-1.8 -0.1,-2.7 -8,-6 -16.8,-6.9 -26,-3.3 -5,1.9 -13.7,8.8 -13.9,8.8 -8.5,-7.1 -20.5,-10.7 -32,-10.2 -0.6,0 -1.2,0.1 -1.8,0.2 -1.5,0.1 -1,-0.5 -0.4,-1.2 3.7,-3.6 7.7,-6.9 12.1,-9.6 9.5,-5.9 19.7,-9.2 31.1,-7.7 10.7,1.4 19.2,6.9 26.9,14.1 0.8,0.7 1.4,2.3 2.6,1.8 1.1,-0.4 0.7,-2 0.8,-3 1.6,-14.7 5.3,-28.9 11.2,-42.5000003 0.8,-1.9 1.6,-2.2 3.400003,-1.3 4.5,2 8.9,4.1 13.3,6.4 1.3,0.7 1.7,1.2 0.8,2.6 -7.3,11.5000003 -12.7,23.8000003 -16.500003,36.8000003 -0.2,0.7 -0.4,1.4 -0.6,2.5 1.5,-1.2 2.600003,-2.2 3.900003,-3.1 5.1,-3.3 11,-4.1 16.8,-3.5 11.7,1.1 22,-1.7 31.5,-9.6 -1.9,22.2 -17.7,30.8 -20.8,32.6 -2.4,-1.3 -4.4,-3.1 -6.4,-4.9 -5.6,-4.8 -11.4,-9.1 -19.1,-9.8 -4.800003,-0.4 -8.900003,1.3 -12.700003,3.8 -1.2,0.8 -1.4,1.6 -0.1,2.8 4,3.6 8.2,6.9 12.700003,9.8 5.4,3.4 11.2,6 17.4,7.4 9.2,2 18.5,2.6 27.9,0.2 2.3,-0.6 6.8,-1.9 6.8,-1.9 -11.1,13 -27.9,16 -37.7,14.9 -10.2,-1.1 -18.300003,-6.4 -25.300003,-13.6 -1.2,-1.3 -1.9,-1.8 -3.3,0 -11.5,15.4 -43.5,44.200002 -88.70000001,4.7 z"
   id="path122" />
</svg>
