<?xml version="1.0" encoding="UTF-8" standalone="no"?>
<svg
   version="1.1"
   x="0px"
   y="0px"
   viewBox="0 0 90 90"
   xml:space="preserve"
   id="svg8"
   sodipodi:docname="noun-email-4218876.svg"
   inkscape:version="1.1.2 (0a00cf5339, 2022-02-04)"
   width="90"
   height="90"
   xmlns:inkscape="http://www.inkscape.org/namespaces/inkscape"
   xmlns:sodipodi="http://sodipodi.sourceforge.net/DTD/sodipodi-0.dtd"
   xmlns="http://www.w3.org/2000/svg"
   xmlns:svg="http://www.w3.org/2000/svg"><defs
     id="defs12" /><sodipodi:namedview
     id="namedview10"
     pagecolor="#ffffff"
     bordercolor="#666666"
     borderopacity="1.0"
     inkscape:pageshadow="2"
     inkscape:pageopacity="0.0"
     inkscape:pagecheckerboard="0"
     showgrid="false"
     inkscape:zoom="6.208"
     inkscape:cx="44.619845"
     inkscape:cy="46.794459"
     inkscape:window-width="1862"
     inkscape:window-height="1016"
     inkscape:window-x="0"
     inkscape:window-y="0"
     inkscape:window-maximized="1"
     inkscape:current-layer="svg8" /><path
     d="M 45,0 C 20.2,0 0,20.2 0,45 c 0,24.8 20.2,44.999997 45,44.999997 9.5,0 15.9,-2.6 22.5,-6.399997 1.4,-0.8 1.9,-2.7 1.1,-4.1 C 67.8,78.1 65.9,77.6 64.5,78.4 58.5,81.9 53.2,84 45,84 23.5,84 5.9999996,66.5 5.9999996,45 5.9999996,23.5 23.5,6 45,6 66.5,6 84,23.5 84,45 V 55.5 C 84,59.6 80.6,63 76.5,63 72.4,63 69,59.6 69,55.5 V 25 c 0,-1.7 -1.3,-3 -3,-3 -1.7,0 -3,1.3 -3,3 v 4.2 C 58.6,24.2 52.2,21 45,21 31.8,21 21,31.8 21,45 21,58.2 31.8,69 45,69 52.6,69 59.4,65.4 63.8,59.9 65.6,65.2 70.6,69 76.5,69 83.9,69 90,62.9 90,55.5 V 45 C 90,20.2 69.8,0 45,0 Z m 0,63 c -9.9,0 -18,-8.1 -18,-18 0,-9.9 8.1,-18 18,-18 9.9,0 18,8.1 18,18 0,9.9 -8.1,18 -18,18 z"
     id="path2"
     style="fill:#000000" /></svg>
