<?xml version="1.0" encoding="UTF-8" standalone="no"?>
<svg
   viewBox="0 0 36 32"
   x="0px"
   y="0px"
   version="1.1"
   id="svg10"
   sodipodi:docname="noun-month-1726838.svg"
   width="36"
   height="32"
   inkscape:version="1.1.2 (0a00cf5339, 2022-02-04)"
   xmlns:inkscape="http://www.inkscape.org/namespaces/inkscape"
   xmlns:sodipodi="http://sodipodi.sourceforge.net/DTD/sodipodi-0.dtd"
   xmlns="http://www.w3.org/2000/svg"
   xmlns:svg="http://www.w3.org/2000/svg">
  <defs
     id="defs14" />
  <sodipodi:namedview
     id="namedview12"
     pagecolor="#ffffff"
     bordercolor="#666666"
     borderopacity="1.0"
     inkscape:pageshadow="2"
     inkscape:pageopacity="0.0"
     inkscape:pagecheckerboard="0"
     showgrid="false"
     inkscape:zoom="3.2333333"
     inkscape:cx="36.804124"
     inkscape:cy="10.051546"
     inkscape:window-width="1862"
     inkscape:window-height="1016"
     inkscape:window-x="0"
     inkscape:window-y="0"
     inkscape:window-maximized="1"
     inkscape:current-layer="svg10" />
  <title
     id="title2">Month, date, interface</title>
  <path
     d="M 31,2 H 26 V 1 A 1,1 0 0 0 24,1 V 2 H 12 V 1 A 1,1 0 0 0 9.9999996,1 V 2 H 5 A 5,5 0 0 0 0,7 v 20 a 5,5 0 0 0 5,5 h 26 a 5,5 0 0 0 5,-5 V 7 A 5,5 0 0 0 31,2 Z m 3,25 a 3,3 0 0 1 -3,3 H 5 A 3,3 0 0 1 2,27 V 12 H 34 Z M 34,10 H 2 V 7 A 3,3 0 0 1 5,4 H 9.9999996 V 5 A 1,1 0 0 0 12,5 V 4 h 12 v 1 a 1,1 0 0 0 2,0 V 4 h 5 a 3,3 0 0 1 3,3 z"
     id="path4"
     style="fill:#ffffff" />
</svg>
