<?xml version="1.0" encoding="UTF-8" standalone="no"?>
<svg
   viewBox="0 0 21.003452 21.00033"
   x="0px"
   y="0px"
   version="1.1"
   id="svg8"
   sodipodi:docname="icon-head-brain.svg"
   width="21.003452"
   height="21.00033"
   inkscape:version="1.1.2 (0a00cf5339, 2022-02-04)"
   xmlns:inkscape="http://www.inkscape.org/namespaces/inkscape"
   xmlns:sodipodi="http://sodipodi.sourceforge.net/DTD/sodipodi-0.dtd"
   xmlns="http://www.w3.org/2000/svg"
   xmlns:svg="http://www.w3.org/2000/svg">
  <defs
     id="defs12" />
  <sodipodi:namedview
     id="namedview10"
     pagecolor="#ffffff"
     bordercolor="#666666"
     borderopacity="1.0"
     inkscape:pageshadow="2"
     inkscape:pageopacity="0.0"
     inkscape:pagecheckerboard="0"
     showgrid="false"
     inkscape:zoom="25.866667"
     inkscape:cx="1.3530928"
     inkscape:cy="13.472938"
     inkscape:window-width="1862"
     inkscape:window-height="1016"
     inkscape:window-x="0"
     inkscape:window-y="0"
     inkscape:window-maximized="1"
     inkscape:current-layer="svg8" />
  <path
     d="m 20.567033,9.9003301 a 1.5,1.5 0 0 1 -0.7,2.5129999 l -1.862,0.476 v 2.611 a 2.5,2.5 0 0 1 -2.501,2.5 h -1.545 v 2.5 a 0.5,0.5 0 0 1 -1,0 v -3 a 0.5,0.5 0 0 1 0.5,-0.5 h 2.045 a 1.5,1.5 0 0 0 1.5,-1.5 v -3 a 0.5,0.5 0 0 1 0.376,-0.484 l 2.242,-0.572 a 0.5,0.5 0 0 0 0.235,-0.84 l -2.71,-2.7529999 a 0.5,0.5 0 0 1 -0.143,-0.351 6.508,6.508 0 0 0 -6.5,-6.5 h -1.752 a 7.684,7.684 0 0 0 -7.715,6.788 7.449,7.449 0 0 0 3.7,7.1929999 2.53,2.53 0 0 1 1.267,2.167 v 3.352 a 0.5,0.5 0 0 1 -1,0 v -3.352 a 1.5,1.5 0 0 0 -0.771,-1.3 A 8.44,8.44 0 0 1 0.04103304,7.7003301 8.692,8.692 0 0 1 8.752033,3.3012775e-4 h 1.752 a 7.509,7.509 0 0 1 7.5,7.29199997225 z m -15.063,3.0999999 a 0.5,0.5 0 0 0 0.5,-0.5 v -2 a 0.5,0.5 0 0 0 -0.5,-0.5 1.494,1.494 0 0 1 -0.729,-2.7999999 0.576,0.576 0 0 0 0.243,-0.557 0.962,0.962 0 0 1 -0.014,-0.143 1.488,1.488 0 0 1 1.464,-1.495 0.5,0.5 0 0 0 0.436,-0.267 1.631,1.631 0 0 1 1.6,-0.738 1.467,1.467 0 0 1 1.266,0.752 0.5,0.5 0 0 0 0.434,0.248 h 1.3 a 1.5,1.5 0 0 1 0,3 0.5,0.5 0 0 0 0,1 2.5,2.5 0 0 0 0,-5 h -1.035 a 2.438,2.438 0 0 0 -1.965,-1 2.652,2.652 0 0 0 -2.34,1.027 2.48,2.48 0 0 0 -2.16,2.473 v 0.011 a 2.492,2.492 0 0 0 1,4.4389999 v 1.55 a 0.5,0.5 0 0 0 0.5,0.5 z"
     id="path2"
     style="fill:#ffffff" />
  <text
     x="-1.4959669"
     y="37.500332"
     fill="#000000"
     font-size="5px"
     font-weight="bold"
     font-family="'Helvetica Neue', Helvetica, Arial-Unicode, Arial, Sans-serif"
     id="text4">Created by Royyan Wijaya</text>
  <text
     x="-1.4959669"
     y="42.500332"
     fill="#000000"
     font-size="5px"
     font-weight="bold"
     font-family="'Helvetica Neue', Helvetica, Arial-Unicode, Arial, Sans-serif"
     id="text6">from the Noun Project</text>
</svg>
