<?xml version="1.0" encoding="UTF-8" standalone="no"?>
<svg
   version="1.1"
   x="0px"
   y="0px"
   viewBox="0 0 24 16"
   xml:space="preserve"
   id="svg16"
   sodipodi:docname="noun-menu-3648445.svg"
   width="24"
   height="16"
   inkscape:version="1.1.2 (0a00cf5339, 2022-02-04)"
   xmlns:inkscape="http://www.inkscape.org/namespaces/inkscape"
   xmlns:sodipodi="http://sodipodi.sourceforge.net/DTD/sodipodi-0.dtd"
   xmlns="http://www.w3.org/2000/svg"
   xmlns:svg="http://www.w3.org/2000/svg"><defs
     id="defs20" /><sodipodi:namedview
     id="namedview18"
     pagecolor="#ffffff"
     bordercolor="#666666"
     borderopacity="1.0"
     inkscape:pageshadow="2"
     inkscape:pageopacity="0.0"
     inkscape:pagecheckerboard="0"
     showgrid="false"
     inkscape:zoom="22.171429"
     inkscape:cx="1.3530928"
     inkscape:cy="11.478737"
     inkscape:window-width="1862"
     inkscape:window-height="1016"
     inkscape:window-x="0"
     inkscape:window-y="0"
     inkscape:window-maximized="1"
     inkscape:current-layer="svg16" /><style
     type="text/css"
     id="style2">
	.st0{display:none;}
	.st1{display:inline;}
</style><g
     id="g10"
     transform="translate(-2,-6)"
     style="fill:#ffffff"><path
       d="M 25,20 H 3 c -0.55,0 -1,0.45 -1,1 0,0.55 0.45,1 1,1 h 22 c 0.55,0 1,-0.45 1,-1 0,-0.55 -0.45,-1 -1,-1 z"
       id="path4"
       style="fill:#ffffff" /><path
       d="M 3,8 H 25 C 25.55,8 26,7.55 26,7 26,6.45 25.55,6 25,6 H 3 C 2.45,6 2,6.45 2,7 2,7.55 2.45,8 3,8 Z"
       id="path6"
       style="fill:#ffffff" /><path
       d="M 25,13 H 3 c -0.55,0 -1,0.45 -1,1 0,0.55 0.45,1 1,1 h 22 c 0.55,0 1,-0.45 1,-1 0,-0.55 -0.45,-1 -1,-1 z"
       id="path8"
       style="fill:#ffffff" /></g><text
     x="-2"
     y="37"
     fill="#000000"
     font-size="5px"
     font-weight="bold"
     font-family="'Helvetica Neue', Helvetica, Arial-Unicode, Arial, Sans-serif"
     id="text12">Created by andika</text><text
     x="-2"
     y="42"
     fill="#000000"
     font-size="5px"
     font-weight="bold"
     font-family="'Helvetica Neue', Helvetica, Arial-Unicode, Arial, Sans-serif"
     id="text14">from the Noun Project</text></svg>
