<?xml version="1.0" encoding="UTF-8" standalone="no"?>
<!-- Created with Inkscape (http://www.inkscape.org/) -->

<svg
   version="1.1"
   id="svg2"
   xml:space="preserve"
   width="496.42133"
   height="999.05597"
   viewBox="0 0 496.4213 999.05597"
   sodipodi:docname="phone.svg"
   inkscape:version="1.1.2 (0a00cf5339, 2022-02-04)"
   xmlns:inkscape="http://www.inkscape.org/namespaces/inkscape"
   xmlns:sodipodi="http://sodipodi.sourceforge.net/DTD/sodipodi-0.dtd"
   xmlns="http://www.w3.org/2000/svg"
   xmlns:svg="http://www.w3.org/2000/svg"><defs
     id="defs6" /><sodipodi:namedview
     id="namedview4"
     pagecolor="#ffffff"
     bordercolor="#666666"
     borderopacity="1.0"
     inkscape:pageshadow="2"
     inkscape:pageopacity="0.0"
     inkscape:pagecheckerboard="0"
     showgrid="false"
     inkscape:zoom="0.34294679"
     inkscape:cx="-312.00175"
     inkscape:cy="272.63705"
     inkscape:window-width="1862"
     inkscape:window-height="1016"
     inkscape:window-x="0"
     inkscape:window-y="0"
     inkscape:window-maximized="1"
     inkscape:current-layer="g10" /><g
     id="g8"
     inkscape:groupmode="layer"
     inkscape:label="ink_ext_XXXXXX"
     transform="matrix(1.3333333,0,0,-1.3333333,-285.12266,1299.528)"><g
       id="g10"
       transform="scale(0.1)"><path
         d="M 5790.76,9232.78 V 2767.22 c 0,-22.74 -1.72,-45.08 -4.97,-67.01 -0.91,-5.38 -1.83,-10.86 -2.84,-16.14 -5.18,-27.21 -12.9,-53.51 -22.85,-78.68 -1.93,-5.18 -4.06,-10.36 -6.29,-15.44 -14.01,-31.78 -31.68,-61.73 -52.39,-89.24 -2.03,-2.54 -4.06,-5.28 -6.09,-7.82 -14.32,-18.27 -30.26,-35.23 -47.21,-51.07 -6.91,-6.4 -14.01,-12.49 -21.32,-18.38 -2.54,-2.23 -5.18,-4.26 -7.82,-6.19 -7.82,-6.09 -15.84,-11.88 -24.06,-17.46 -0.51,-0.41 -1.02,-0.81 -1.53,-1.12 -5.07,-3.25 -10.15,-6.5 -15.23,-9.64 -5.68,-3.45 -11.47,-6.81 -17.26,-10.06 -5.89,-3.14 -11.77,-6.29 -17.76,-9.23 -2.95,-1.42 -5.99,-2.95 -8.94,-4.27 -3.04,-1.52 -6.09,-2.94 -9.14,-4.16 -9.24,-4.06 -18.58,-7.72 -28.12,-11.17 -6.29,-2.33 -12.69,-4.47 -19.09,-6.39 -3.25,-1.02 -6.49,-2.04 -9.75,-2.95 -9.84,-2.64 -19.79,-5.18 -29.84,-7.21 -3.25,-0.71 -6.6,-1.42 -10.06,-2.03 -3.45,-0.61 -6.8,-1.22 -10.15,-1.73 -6.8,-1.11 -13.7,-2.12 -20.61,-2.84 -4.87,-0.71 -9.74,-1.01 -14.62,-1.42 -4.06,-0.3 -8.12,-0.51 -12.18,-0.71 -7.62,-0.41 -15.13,-0.61 -22.85,-0.61 H 2652.31 c -7.82,0 -15.44,0.2 -23.05,0.61 -4.06,0.2 -8.12,0.41 -12.18,0.71 -7.92,0.61 -15.74,1.32 -23.66,2.23 3.05,-0.3 5.99,-0.51 9.04,-0.81 -220.93,24.88 -393.22,212.81 -393.22,440.23 v 6465.56 c 0,236.46 186.3,430.28 420.02,442.36 h 0.3 c 7.52,0.4 15.03,0.61 22.75,0.61 h 2695.48 c 7.72,0 15.13,-0.21 22.75,-0.61 h 0.1 c 4.06,-0.2 8.12,-0.41 12.18,-0.71 3.86,-0.31 7.92,-0.71 11.88,-1.02 222.25,-23.55 396.06,-212.19 396.06,-440.63 z"
         style="fill:none;stroke:#101011;stroke-width:20;stroke-linecap:butt;stroke-linejoin:miter;stroke-miterlimit:10;stroke-dasharray:none;stroke-opacity:1"
         id="path16" /><path
         d="m 5648.12,2441.82 c -6.91,-6.4 -14.01,-12.49 -21.32,-18.38 -2.54,-2.23 -5.18,-4.26 -7.82,-6.19 -7.82,-6.09 -15.84,-11.88 -24.06,-17.46 -0.51,-0.41 -1.02,-0.81 -1.53,-1.12 -5.07,-3.25 -10.15,-6.5 -15.23,-9.64 -5.68,-3.45 -11.47,-6.81 -17.26,-10.06 -5.89,-3.14 -11.77,-6.29 -17.76,-9.23 -2.95,-1.42 -5.99,-2.95 -8.94,-4.27 -3.04,-1.52 -6.09,-2.94 -9.14,-4.16 -9.24,-4.06 -18.58,-7.72 -28.12,-11.17 -6.29,-2.33 -12.69,-4.47 -19.09,-6.39 -3.25,-1.02 -6.49,-2.04 -9.75,-2.95 -9.84,-2.64 -19.79,-5.18 -29.84,-7.21 -3.25,-0.71 -6.6,-1.42 -10.06,-2.03 -3.45,-0.61 -6.8,-1.22 -10.15,-1.73 -6.8,-1.11 -13.7,-2.12 -20.61,-2.84 -4.87,-0.71 -9.74,-1.01 -14.62,-1.42 -4.06,-0.3 -8.12,-0.51 -12.18,-0.71 -7.62,-0.41 -15.13,-0.61 -22.85,-0.61 H 2652.31 c -7.82,0 -15.44,0.2 -23.05,0.61 -4.06,0.2 -8.12,0.41 -12.18,0.71 -7.92,0.61 -15.74,1.32 -23.66,2.23 3.05,-0.3 5.99,-0.51 9.04,-0.81 -220.93,24.88 -393.22,212.81 -393.22,440.23 v 6465.56 c 0,236.46 186.3,430.28 420.02,442.36 h 0.3 c 7.52,0.4 15.03,0.61 22.75,0.61 h 2695.48 c 7.72,0 15.13,-0.21 22.75,-0.61 h 0.1 c 4.06,-0.2 8.12,-0.41 12.18,-0.71 3.86,-0.31 7.92,-0.71 11.88,-1.02 222.25,-23.55 396.06,-212.19 396.06,-440.63 V 2767.22 c 0,-22.74 -1.72,-45.08 -4.97,-67.01 -0.91,-5.38 -1.83,-10.86 -2.84,-16.14 -5.18,-27.21 -12.9,-53.51 -22.85,-78.68 -1.93,-5.18 -4.06,-10.36 -6.29,-15.44 -14.01,-31.78 -31.68,-61.73 -52.39,-89.24 -2.03,-2.54 -4.06,-5.28 -6.09,-7.82 -14.32,-18.27 -30.26,-35.23 -47.21,-51.07 z M 5347.79,9736.46 H 2652.21 c -278.19,0 -503.79,-225.49 -503.79,-503.68 V 2767.22 c 0,-278.19 225.6,-503.68 503.79,-503.68 h 2695.58 c 278.19,0 503.79,225.49 503.79,503.68 v 6465.56 c 0,278.19 -225.6,503.68 -503.79,503.68"
         style="fill:#ffffff;fill-opacity:1;fill-rule:nonzero;stroke:none"
         id="path18" /><path
         d="m 5648.12,2441.82 c -6.91,-6.4 -14.01,-12.49 -21.32,-18.38 -2.54,-2.23 -5.18,-4.26 -7.82,-6.19 -7.82,-6.09 -15.84,-11.88 -24.06,-17.46 -0.51,-0.41 -1.02,-0.81 -1.53,-1.12 -5.07,-3.25 -10.15,-6.5 -15.23,-9.64 -5.68,-3.45 -11.47,-6.81 -17.26,-10.06 -5.89,-3.14 -11.77,-6.29 -17.76,-9.23 -2.95,-1.42 -5.99,-2.95 -8.94,-4.27 -3.04,-1.52 -6.09,-2.94 -9.14,-4.16 -9.24,-4.06 -18.58,-7.72 -28.12,-11.17 -6.29,-2.33 -12.69,-4.47 -19.09,-6.39 -3.25,-1.02 -6.49,-2.04 -9.75,-2.95 -9.84,-2.64 -19.79,-5.18 -29.84,-7.21 -3.25,-0.71 -6.6,-1.42 -10.06,-2.03 -3.45,-0.61 -6.8,-1.22 -10.15,-1.73 -6.8,-1.11 -13.7,-2.12 -20.61,-2.84 -4.87,-0.71 -9.74,-1.01 -14.62,-1.42 -4.06,-0.3 -8.12,-0.51 -12.18,-0.71 -7.62,-0.41 -15.13,-0.61 -22.85,-0.61 H 2652.31 c -7.82,0 -15.44,0.2 -23.05,0.61 -4.06,0.2 -8.12,0.41 -12.18,0.71 -7.92,0.61 -15.74,1.32 -23.66,2.23 3.05,-0.3 5.99,-0.51 9.04,-0.81 -220.93,24.88 -393.22,212.81 -393.22,440.23 v 6465.56 c 0,236.46 186.3,430.28 420.02,442.36 h 0.3 c 7.52,0.4 15.03,0.61 22.75,0.61 h 2695.48 c 7.72,0 15.13,-0.21 22.75,-0.61 h 0.1 c 4.06,-0.2 8.12,-0.41 12.18,-0.71 3.86,-0.31 7.92,-0.71 11.88,-1.02 222.25,-23.55 396.06,-212.19 396.06,-440.63 V 2767.22 c 0,-22.74 -1.72,-45.08 -4.97,-67.01 -0.91,-5.38 -1.83,-10.86 -2.84,-16.14 -5.18,-27.21 -12.9,-53.51 -22.85,-78.68 -1.93,-5.18 -4.06,-10.36 -6.29,-15.44 -14.01,-31.78 -31.68,-61.73 -52.39,-89.24 -2.03,-2.54 -4.06,-5.28 -6.09,-7.82 -14.32,-18.27 -30.26,-35.23 -47.21,-51.07 z M 5347.79,9736.46 H 2652.21 c -278.19,0 -503.79,-225.49 -503.79,-503.68 V 2767.22 c 0,-278.19 225.6,-503.68 503.79,-503.68 h 2695.58 c 278.19,0 503.79,225.49 503.79,503.68 v 6465.56 c 0,278.19 -225.6,503.68 -503.79,503.68 z"
         style="fill:none;stroke:#101011;stroke-width:20;stroke-linecap:butt;stroke-linejoin:miter;stroke-miterlimit:10;stroke-dasharray:none;stroke-opacity:1"
         id="path20" /><path
         d="m 4186.06,9428.47 h -394.75 c -9.78,0 -17.71,7.93 -17.71,17.72 v 9.77 c 0,9.78 7.93,17.71 17.71,17.71 h 394.75 c 9.78,0 17.71,-7.93 17.71,-17.71 v -9.77 c 0,-9.79 -7.93,-17.72 -17.71,-17.72"
         style="fill:#ffffff;fill-opacity:1;fill-rule:nonzero;stroke:none"
         id="path22" /><path
         d="m 4186.06,9428.47 h -394.75 c -9.78,0 -17.71,7.93 -17.71,17.72 v 9.77 c 0,9.78 7.93,17.71 17.71,17.71 h 394.75 c 9.78,0 17.71,-7.93 17.71,-17.71 v -9.77 c 0,-9.79 -7.93,-17.72 -17.71,-17.72 z"
         style="fill:none;stroke:#101011;stroke-width:20;stroke-linecap:butt;stroke-linejoin:miter;stroke-miterlimit:10;stroke-dasharray:none;stroke-opacity:1"
         id="path24" /><path
         d="m 5361.84,9501.9202 h -2.43 l -3.65,0.37 c -4.3,0.19 -8.23,0.19 -11.87,0.19 h -388.93 c -22.25,-1.12 -40.21,-18.33 -42.45,-40.31 -0.1,-1.49 -0.19,-2.99 -0.19,-4.58 v -0.56 c -5.33,-113.99 -99.41,-204.7 -214.62,-204.7 h -663.95 -75.18 -663.95 c -115.21,0 -209.29,90.71 -214.62,204.7 v 0.56 c 0,1.59 -0.09,3.09 -0.19,4.58 -2.24,21.98 -20.19,39.19 -42.45,40.31 h -388.93 c -3.64,0 -7.57,0 -11.87,-0.19 l -3.65,-0.37 h -2.43 c -141.58,-9.26 -252.11,-127.09 -252.11,-269.42 V 2767.02 c 0,-139.89 109.22,-258.19 248.56,-269.13 1.4,-0.09 2.52,-0.19 3.64,-0.28 h 0.94 l 0.74,-0.09 h 1.6 l 0.56,-0.1 c 4.67,-0.19 9.35,-0.37 14.02,-0.37 h 1310.14 75.18 1310.14 c 4.67,0 9.35,0.18 14.02,0.37 l 0.56,0.1 h 1.59 l 0.75,0.09 h 0.94 c 1.12,0.09 2.24,0.19 3.64,0.28 139.34,10.94 248.56,129.24 248.56,269.13 v 6465.4802 c 0,142.33 -110.53,260.16 -252.11,269.42 z"
         style="fill:none;stroke:#101011;stroke-width:20;stroke-linecap:butt;stroke-linejoin:miter;stroke-miterlimit:10;stroke-dasharray:none;stroke-opacity:1"
         id="path28" /></g></g></svg>
