<?xml version="1.0" encoding="UTF-8" standalone="no"?>
<svg
   data-name="Layer 1"
   viewBox="0 0 88.000336 88"
   x="0px"
   y="0px"
   version="1.1"
   id="svg10"
   sodipodi:docname="icon-web.svg"
   width="88.000336"
   height="88"
   inkscape:version="1.1.2 (0a00cf5339, 2022-02-04)"
   xmlns:inkscape="http://www.inkscape.org/namespaces/inkscape"
   xmlns:sodipodi="http://sodipodi.sourceforge.net/DTD/sodipodi-0.dtd"
   xmlns="http://www.w3.org/2000/svg"
   xmlns:svg="http://www.w3.org/2000/svg">
  <defs
     id="defs14" />
  <sodipodi:namedview
     id="namedview12"
     pagecolor="#ffffff"
     bordercolor="#666666"
     borderopacity="1.0"
     inkscape:pageshadow="2"
     inkscape:pageopacity="0.0"
     inkscape:pagecheckerboard="0"
     showgrid="false"
     inkscape:zoom="6.208"
     inkscape:cx="54.929124"
     inkscape:cy="55.815077"
     inkscape:window-width="1866"
     inkscape:window-height="1016"
     inkscape:window-x="0"
     inkscape:window-y="0"
     inkscape:window-maximized="1"
     inkscape:current-layer="svg10" />
  <title
     id="title2">Telecommunication Icon Set Outline</title>
  <path
     d="m 87.760169,39.38 a 43,43 0 0 0 -3.23,-12.49 43.86,43.86 0 0 0 -38.82,-26.83 q -0.84,-0.06 -1.71,-0.06 -0.87,0 -1.71,0.06 A 43.87,43.87 0 0 0 3.4701693,26.88 43.37,43.37 0 0 0 1.6925155e-4,44 c 0,0.81 0,1.61 0.0699999985,2.41 A 43,43 0 0 0 3.4701693,61.11 43.87,43.87 0 0 0 42.290169,87.94 q 0.84,0.06 1.71,0.06 0.87,0 1.71,-0.06 a 43.87,43.87 0 0 0 38.82,-26.82 43.37,43.37 0 0 0 3.47,-17.12 c 0,-0.75 0,-1.49 0,-2.23 0,-0.74 -0.16,-1.6 -0.24,-2.39 z m -7.01,-13.38 h -7.39 a 43,43 0 0 0 -12.2,-19.2 40.8,40.8 0 0 1 19.59,19.2 z m -7.58,18 a 55.36,55.36 0 0 1 -2,15 h -12.4 a 123.68,123.68 0 0 0 0.91,-15 123.68,123.68 0 0 0 -0.91,-15 h 12.36 a 55.36,55.36 0 0 1 2.04,15 z m -58.34,0 a 55.36,55.36 0 0 1 2,-15 h 12.4 a 124.08,124.08 0 0 0 0,30 h -12.36 a 55.36,55.36 0 0 1 -2.04,-15 z m 40.45,-18 h -22.56 c 2.28,-14.11 6.94,-23 11.28,-23 4.34,0 9,8.89 11.28,23 z m 1.36,18 a 117.5,117.5 0 0 1 -0.92,15 h -23.44 a 117.5,117.5 0 0 1 -0.92,-15 117.5,117.5 0 0 1 0.92,-15 h 23.44 a 117.5,117.5 0 0 1 0.92,15 z m -27,-18 h -11.82 c 3.76,-10.75 10.74,-18.83 19.18,-21.76 -3.49,4.63 -6,12.61 -7.35,21.76 z m 0,36.08 c 1.36,9.07 3.87,17.05 7.36,21.68 -8.43,-2.93 -15.41,-11 -19.17,-21.72 z m 3.07,0 h 22.57 c -2.28,14.03 -6.94,22.92 -11.28,22.92 -4.34,0 -9,-8.89 -11.28,-23 z m 25.63,0 h 11.84 c -3.76,10.67 -10.74,18.75 -19.18,21.68 3.49,-4.63 6,-12.61 7.35,-21.76 z m 0,-36.08 c -1.34,-9.15 -3.85,-17.13 -7.34,-21.76 8.43,2.93 15.41,11 19.17,21.72 z m -31.5,-19.2 a 43,43 0 0 0 -12.2,19.2 H 7.2501693 A 40.75,40.75 0 0 1 26.840169,6.8 Z M 3.0801693,42 c 0,-0.23 0,-0.46 0.05,-0.69 0,-0.44 0.06,-0.87 0.1,-1.31 0,-0.27 0.06,-0.54 0.09,-0.81 0.03,-0.27 0.09,-0.77 0.15,-1.16 0.06,-0.39 0.09,-0.57 0.14,-0.86 0.05,-0.29 0.12,-0.73 0.19,-1.09 0.07,-0.36 0.13,-0.58 0.19,-0.87 l 0.24,-1.06 c 0.08,-0.29 0.16,-0.58 0.23,-0.87 0.07,-0.29 0.19,-0.69 0.3,-1 0.11,-0.31 0.18,-0.58 0.27,-0.86 0.09,-0.28 0.23,-0.68 0.35,-1 0.12,-0.32 0.2,-0.57 0.31,-0.85 l 0.21,-0.57 h 7.8299997 a 59.26,59.26 0 0 0 0,30 H 5.9001693 l -0.2,-0.48 -0.33,-0.91 c -0.12,-0.32 -0.22,-0.64 -0.33,-1 -0.11,-0.36 -0.2,-0.6 -0.29,-0.91 -0.09,-0.31 -0.19,-0.66 -0.28,-1 l -0.24,-0.9 -0.24,-1 c -0.06,-0.3 -0.13,-0.6 -0.19,-0.9 -0.06,-0.3 -0.13,-0.71 -0.19,-1.07 -0.06,-0.36 -0.1,-0.58 -0.14,-0.87 -0.04,-0.29 -0.1,-0.77 -0.15,-1.15 -0.05,-0.38 -0.07,-0.55 -0.09,-0.83 -0.02,-0.28 -0.07,-0.86 -0.1,-1.3 0,-0.23 0,-0.46 -0.05,-0.69 0,-0.67 -0.05,-1.34 -0.05,-2 0,-0.66 0.02,-1.33 0.05,-1.99 z m 4.17,20 h 7.3899997 a 43,43 0 0 0 12.2,19.2 A 40.8,40.8 0 0 1 7.2501693,62 Z M 61.160169,81.2 a 43,43 0 0 0 12.2,-19.2 h 7.39 a 40.8,40.8 0 0 1 -19.59,19.2 z m 23.76,-35.2 c 0,0.23 0,0.46 0,0.68 0,0.44 -0.06,0.88 -0.1,1.32 0,0.27 -0.06,0.53 -0.09,0.8 -0.03,0.27 -0.09,0.78 -0.15,1.17 -0.06,0.39 -0.09,0.57 -0.14,0.85 -0.05,0.28 -0.12,0.74 -0.19,1.1 -0.07,0.36 -0.13,0.58 -0.19,0.86 l -0.24,1.07 -0.23,0.86 c -0.1,0.35 -0.19,0.7 -0.3,1.05 l -0.27,0.85 c -0.11,0.34 -0.23,0.68 -0.35,1 -0.12,0.32 -0.21,0.57 -0.31,0.85 l -0.26,0.54 h -7.83 a 59.26,59.26 0 0 0 0,-30 h 7.83 c 0.07,0.16 0.13,0.32 0.19,0.48 0.06,0.16 0.24,0.61 0.34,0.91 0.1,0.3 0.22,0.63 0.33,1 0.11,0.37 0.2,0.61 0.29,0.92 0.09,0.31 0.19,0.65 0.28,1 l 0.24,0.92 c 0.08,0.33 0.16,0.67 0.23,1 0.07,0.33 0.14,0.61 0.2,0.91 0.06,0.3 0.13,0.71 0.19,1.07 0.06,0.36 0.1,0.58 0.14,0.88 0.04,0.3 0.1,0.76 0.15,1.15 0.05,0.39 0.07,0.54 0.09,0.81 0,0.44 0.07,0.87 0.1,1.31 0,0.23 0,0.46 0,0.69 0,0.67 0,1.34 0,2 0,0.66 0.13,1.29 0.05,1.95 z"
     id="path4"
     style="fill:#ffffff" />
</svg>
